<!--?xml version="1.0" standalone="no"?-->
              <svg id="sw-js-blob-svg" viewBox="0 0 100 100" xmlns="http://www.w3.org/2000/svg" version="1.1">
                    <defs> 
                        <linearGradient id="sw-gradient" x1="0" x2="1" y1="1" y2="0">
                            <stop id="stop1" stop-color="rgba(239.561, 230.255, 225.851, 1)" offset="0%"></stop>
                            <stop id="stop2" stop-color="rgba(255, 255, 255, 1)" offset="100%"></stop>
                        </linearGradient>
                    </defs>
                <path fill="url(#sw-gradient)" d="M18.6,-19C24.9,-16.8,31.6,-11.8,33.7,-5.2C35.7,1.4,33.2,9.5,28.7,16C24.3,22.4,18,27.2,11.3,28.4C4.7,29.7,-2.2,27.3,-10,25.4C-17.7,23.4,-26.3,21.8,-32.9,16.2C-39.6,10.6,-44.2,1,-42.8,-7.7C-41.4,-16.3,-34.1,-24.1,-25.9,-26C-17.8,-27.9,-8.9,-24,-1.4,-22.4C6.1,-20.7,12.2,-21.2,18.6,-19Z" width="100%" height="100%" transform="translate(50 50)" stroke-width="0" style="transition: all 0.3s ease 0s;"></path>
              </svg>